<mxfile host="app.diagrams.net" modified="2023-03-09T06:48:59.979Z" agent="5.0 (Linux; Android 12; Redmi Note 9 Pro Max) AppleWebKit/537.36 (KHTML, like Gecko) Chrome/110.0.0.0 Mobile Safari/537.36" etag="XWHD7n4wfB8en954KEnU" version="21.0.4" type="github">
  <diagram name="Page-1" id="pNLBIoRjE0ENzn3T61YB">
    <mxGraphModel dx="359" dy="657" grid="0" gridSize="10" guides="1" tooltips="1" connect="1" arrows="1" fold="1" page="0" pageScale="1" pageWidth="827" pageHeight="1169" math="0" shadow="0">
      <root>
        <mxCell id="0" />
        <mxCell id="1" parent="0" />
        <mxCell id="NLKu8V2KgLuqgF5NhySn-1" value="" style="ellipse;whiteSpace=wrap;html=1;fontSize=16;" parent="1" vertex="1">
          <mxGeometry x="206" y="160" width="120" height="80" as="geometry" />
        </mxCell>
      </root>
    </mxGraphModel>
  </diagram>
</mxfile>
